<svg xmlns="http://www.w3.org/2000/svg" width="1088" height="200" viewBox="0 0 1088 200" version="1.1"><path d="M 281 2.016 C 232.558 10.574, 191.882 46.054, 176.121 93.500 C 171.064 108.723, 169.553 118.004, 169.525 134 C 169.504 146.420, 169.834 149.576, 171.831 156 C 177.849 175.365, 190.694 188.006, 211.273 194.816 C 224.438 199.173, 234.866 200.281, 257.819 199.759 C 275.614 199.355, 278.363 199.052, 286.500 196.594 C 336.368 181.534, 372.723 138.762, 382.056 84.171 C 385.718 62.752, 384.053 44.398, 377.294 31.675 C 373.594 24.710, 362.847 14.208, 355.494 10.373 C 336.924 0.686, 307.327 -2.634, 281 2.016 M 994.500 1.051 C 979.191 3.404, 961.048 10.155, 949.627 17.748 C 935.600 27.073, 926.561 38.521, 921.391 53.510 C 919.095 60.166, 918.624 63.253, 918.567 72 C 918.507 81.418, 918.780 83.099, 921.222 88.309 C 924.606 95.533, 932.516 103.400, 940.866 107.849 C 944.323 109.691, 957.913 114.746, 971.065 119.083 C 984.217 123.419, 996.546 127.987, 998.462 129.234 C 1010.975 137.374, 1000.521 154.581, 980.937 158.081 C 972.718 159.549, 959.589 158.112, 954.598 155.197 C 949.515 152.229, 947.036 146.685, 947.016 138.250 L 947 131 917.131 131 L 887.262 131 886.642 134.750 C 885.359 142.512, 885.968 155.719, 887.895 161.909 C 895.592 186.640, 921.575 199.993, 962 199.992 C 976.126 199.992, 988.671 198.392, 1000.543 195.075 C 1039.539 184.182, 1066.226 155.521, 1066.257 124.500 C 1066.269 112.627, 1063.814 106.073, 1056.322 97.981 C 1046.684 87.571, 1034.452 81.651, 1009.767 75.451 C 983.320 68.807, 976.505 63.659, 981.464 54.069 C 985.318 46.616, 995.155 42.553, 1007.854 43.168 C 1020.531 43.783, 1027.075 48.651, 1028.563 58.573 L 1029.227 63 1058.068 63 L 1086.909 63 1087.572 59.465 C 1088.810 52.870, 1087.451 37.884, 1085.055 31.683 C 1081.650 22.876, 1072.783 13.919, 1062.589 8.991 C 1049.333 2.583, 1040.448 0.844, 1019 0.460 C 1008.825 0.277, 997.800 0.543, 994.500 1.051 M 13.584 7.250 C 13.028 10.823, -0.056 191.126, -0.021 194.750 L 0 197 34.924 197 L 69.847 197 135.438 102.044 C 171.513 49.818, 201.296 6.393, 201.621 5.544 C 202.148 4.171, 198.624 4.002, 169.857 4.021 L 137.500 4.041 102.250 59.176 C 79.766 94.343, 67.003 113.439, 67.008 111.905 C 67.013 110.582, 68.811 86.550, 71.005 58.500 C 73.199 30.450, 74.995 6.713, 74.997 5.750 C 75 4.122, 72.884 4, 44.545 4 L 14.091 4 13.584 7.250 M 409.032 97.250 C 389.547 148.537, 373.012 191.963, 372.289 193.750 L 370.973 197 447.344 197 L 523.714 197 532.857 172.997 C 537.886 159.795, 542 148.549, 542 148.007 C 542 147.378, 526.107 146.927, 498.073 146.760 L 454.147 146.500 481.072 75.500 C 495.881 36.450, 507.998 4.388, 507.998 4.250 C 507.999 4.112, 493.704 4, 476.230 4 L 444.460 4 409.032 97.250 M 571.480 5.250 C 567.546 15.999, 555 52.423, 555 53.094 C 555 53.613, 566.786 54, 582.607 54 C 608.490 54, 610.172 54.109, 609.538 55.750 C 606.729 63.018, 558.497 190.313, 557.439 193.250 L 556.089 197 587.922 197 L 619.755 197 646.554 125.515 L 673.352 54.031 701.401 53.765 L 729.450 53.500 738.187 31.500 C 742.992 19.400, 747.367 8.262, 747.910 6.750 L 748.896 4 660.417 4 C 590.544 4, 571.841 4.263, 571.480 5.250 M 725 99.656 C 684.575 152.227, 651.350 195.635, 651.167 196.120 C 650.979 196.615, 664.548 197, 682.209 197 L 713.585 197 759.043 133.815 C 796.707 81.461, 804.554 71.084, 804.813 73.283 C 804.986 74.742, 804.213 90.013, 803.097 107.218 C 801.981 124.423, 800.594 149.750, 800.015 163.500 C 799.437 177.250, 798.755 190.412, 798.501 192.750 L 798.038 197 830.061 197 L 862.085 197 861.509 108.750 C 861.192 60.213, 860.683 16.788, 860.377 12.250 L 859.820 4 829.160 4.036 L 798.500 4.073 725 99.656 M 282 49.546 C 265.275 54.194, 248.365 72.836, 239.929 95.927 C 233.622 113.191, 231.366 131.153, 234.548 138.768 C 238.278 147.696, 244.637 151.151, 258.500 151.781 C 267.998 152.212, 268.881 152.075, 276.088 149.047 C 294.590 141.273, 307.295 125.081, 316.646 97.356 C 324.274 74.740, 321.300 57.338, 308.692 50.812 C 303.214 47.976, 289.919 47.346, 282 49.546" stroke="none" fill="#447cbc" fill-rule="evenodd"/></svg>